<svg xmlns="http://www.w3.org/2000/svg" height="500" width="720" id="svg416" xml:space="preserve" y="0" x="0" version="1.1"><style id="style2" type="text/css">.st0{opacity:.25;fill:#1a1a1a}.st5{fill:#353535}.st9{fill:#808e86}.st10{fill:#321908}.st12{fill:#1a1a1a}.st13{fill:#c1bdb3}.st20{fill:#42210b}.st21{fill:#a86616}.st32{fill:#f58a07}</style><g transform="matrix(.23863 0 0 .24017 -231.255 -300.353)" id="Pickaxe"><g id="Pickaxe_Group"><path id="polyline4" class="st0" d="M2942.1 2933.5l51 29.9-51 28.6"/><path id="path6" d="M1802.8 2609.1c3.4-13.3 34.3-39.3 51-29.3l765.6 441.5c5-5.3 10.8-8.7 16.7-9.6l45.1 26.1-77.4 53.5" class="st0"/><linearGradient y2="2733.273" x2="2290.204" y1="2955.513" x1="2067.964" gradientUnits="userSpaceOnUse" id="SVGID_1_"><stop id="stop8" offset="0" stop-color="#321908"/><stop id="stop10" offset="1" stop-color="#f58a07"/></linearGradient><path id="path13" d="M2550.7 3106.5l-780.9-451.1c-39.8-21.5 32.9-71 78.2-44.9l755.9 436.4" fill="url(#SVGID_1_)"/><linearGradient y2="3010.446" x2="2942.14" y1="3010.446" x1="2687.468" gradientUnits="userSpaceOnUse" id="SVGID_2_"><stop id="stop15" offset="0" stop-color="#353535"/><stop id="stop17" offset="1" stop-color="#808e86"/></linearGradient><path id="polygon20" fill="url(#SVGID_2_)" d="M2714.7 3094.6l227.4-102.6v-65.7L2687.5 3073z"/><linearGradient y2="2982.572" x2="2942.14" y1="2982.572" x1="2648.936" gradientUnits="userSpaceOnUse" id="SVGID_3_"><stop id="stop22" offset="0" stop-color="#808e86"/><stop id="stop24" offset="1" stop-color="#c1bdb3"/></linearGradient><path id="polygon27" fill="url(#SVGID_3_)" d="M2648.9 3050.4l235-158.2 58.2 34.1-254.6 146.7z"/><linearGradient y2="3172.771" x2="2582.479" y1="3047.544" x1="2649.977" gradientUnits="userSpaceOnUse" id="SVGID_4_"><stop id="stop29" offset="0" stop-color="#c1bdb3"/><stop id="stop31" offset=".229" stop-color="#bebab0"/><stop id="stop33" offset=".385" stop-color="#b5b2a8"/><stop id="stop35" offset=".519" stop-color="#a6a39a"/><stop id="stop37" offset=".642" stop-color="#908e86"/><stop id="stop39" offset=".755" stop-color="#74726d"/><stop id="stop41" offset=".863" stop-color="#52514d"/><stop id="stop43" offset=".964" stop-color="#2a2a29"/><stop id="stop45" offset="1" stop-color="#1a1a1a"/></linearGradient><path id="path48" d="M2566.1 3136.9c-10.2-4-16.7-14.1-16.7-28.7 0-26.1 19.3-58 42.8-71 8.8-4.9 17.3-6.3 24.4-4.7l90.8 51.9-65.2 96.8z" fill="url(#SVGID_4_)"/><path id="path50" d="M2629.2 3154.3c0-26.1 19.3-58 42.8-71 23.6-13 44.3-1.3 46 26.1 1.7 27.4-17.5 59.3-42.8 71-25.3 11.7-46-.1-46-26.1z" class="st5"/><linearGradient y2="3114.247" x2="2741.023" y1="3183.765" x1="2671.505" gradientUnits="userSpaceOnUse" id="SVGID_5_"><stop id="stop52" offset="0" stop-color="#321908"/><stop id="stop54" offset="1" stop-color="#f58a07"/></linearGradient><path id="path57" d="M2662.4 3173c-6.6-2.9-10.8-9.7-10.8-19.4 0-17.9 13.2-39.8 29.4-48.7 9.2-5.1 17.8-4.6 23.7.2l61.6 34.3-44.3 65.9z" fill="url(#SVGID_5_)"/><g id="g77"><linearGradient y2="3183.044" x2="2609.86" y1="3183.044" x1="2316.672" gradientUnits="userSpaceOnUse" id="SVGID_6_"><stop id="stop59" offset="0" stop-color="#808e86"/><stop id="stop61" offset="1" stop-color="#c1bdb3"/></linearGradient><path id="polygon64" fill="url(#SVGID_6_)" d="M2549.4 3108.2l-232.7 156.6 273.6-135.5 19.6-5.4-39.1-22.6z"/><linearGradient y2="3228.179" x2="2609.86" y1="3228.179" x1="2316.672" gradientUnits="userSpaceOnUse" id="SVGID_7_"><stop id="stop66" offset="0" stop-color="#353535"/><stop id="stop68" offset="1" stop-color="#808e86"/></linearGradient><path id="polygon71" fill="url(#SVGID_7_)" d="M2609.9 3156.6l-19.6 17.9-273.6 158v-67.7l273.6-135.5 19.6-5.4z"/><path id="polygon73" class="st9" d="M2549.4 3108.2l40.9 21.1 19.6-5.4-39.1-22.6z"/><path id="polygon75" class="st5" d="M2590.3 3129.3v45.2l19.6-17.9v-32.7z"/></g><path id="path79" d="M2711.1 3186c0-17.9 13.2-39.8 29.4-48.7 16.1-8.9 30.3-.9 31.5 17.9 1.2 18.8-12 40.7-29.4 48.7-17.3 8-31.5-.1-31.5-17.9z" class="st10"/><path id="path81" d="M2309.8 2917.2" class="st5"/></g></g><g transform="matrix(.23863 0 0 .24017 -231.255 -300.353)" id="Tower"><g id="Tower_Group"><path id="polyline85" class="st0" d="M2109.2 2373.4l425.8-245.8-410-234-44.1 25.2"/><linearGradient y2="2167.957" x2="2472.256" y1="2167.957" x1="2098.168" gradientUnits="userSpaceOnUse" id="SVGID_8_"><stop id="stop87" offset="0" stop-color="#808e86"/><stop id="stop89" offset=".115" stop-color="#67716b"/><stop id="stop91" offset=".271" stop-color="#4b524e"/><stop id="stop93" offset=".434" stop-color="#363937"/><stop id="stop95" offset=".603" stop-color="#262827"/><stop id="stop97" offset=".785" stop-color="#1d1d1d"/><stop id="stop99" offset="1" stop-color="#1a1a1a"/></linearGradient><path id="path102" d="M2103.2 2161s20.5-11.8 45.7-26.3c25.1-14.5 53.2 13.5 62.3 62.2 9.2 48.6 70.3 47.1 135.8-3.5 65.5-50.6 119.2-92 119.2-92" stroke="url(#SVGID_8_)" fill="none" stroke-width="20" stroke-miterlimit="10"/><g id="g138"><path id="polygon104" class="st12" d="M1344.6 1950.3l764.5-440 .1 863.1-765.3 441.8z"/><path id="polygon106" class="st5" d="M1344.6 1950.3l-374.7-214.4 765.2-441.6 374 216z"/><path id="polygon108" class="st13" d="M969.9 1735.9v863.2l374 216.1-.1-863.8z"/><path id="polygon110" class="st9" d="M1343.8 1951.4l-374.7-214.3 87.2-51 372 216z"/><path id="polygon112" class="st5" d="M1342.1 1951.8l86.2-49.7.3 864.3-86.4 49.2z"/><path id="path114" d="M1003.6 1755.2s.3 157.6.3 351.9c0 194.3 52.3 393.4 136.5 442 84.2 48.6 169.6-70.4 169.5-264.7-.1-194.3-.1-352.6-.1-352.6z" class="st5"/><path id="path116" d="M1047.1 1857.4c-3.8-2.2-7-.4-7.1 4l-.7 41.7c-.1 4.4 3 9.8 6.8 12l224.1 129.5c3.8 2.2 6.9.4 7-4l.2-42.9c0-4.4-3.1-9.8-6.9-12z" class="st9"/><path id="path118" d="M1047.1 1975c-3.8-2.2-7-.4-7.1 4l-.7 41.7c-.1 4.4 3 9.8 6.8 12l224.1 129.5c3.8 2.2 6.9.4 7-4l.2-42.9c0-4.4-3.1-9.8-6.9-12z" class="st9"/><path id="path120" d="M1140.4 2375.3c-14-8.9-25.5-6.7-25.5 4.9 0 11.6 11.5 27.7 25.5 35.8 14 8.1 25.5 5.9 25.5-4.9s-11.4-26.9-25.5-35.8z" fill="#1a1a1a" stroke="#20bf55" stroke-width="8" stroke-miterlimit="10"/><path id="path122" d="M1140.4 2438.1c-9.8-6.2-17.9-4.7-17.9 3.4s8 19.4 17.8 25.1c9.8 5.7 17.9 4.1 17.9-3.4s-8-18.9-17.8-25.1z" fill="#1a1a1a" stroke="#808e86" stroke-width="4" stroke-miterlimit="10"/><path id="path124" d="M1233.6 2044.3c-4.8-2.7-8.6-.6-8.5 4.8.1 5.4 4 12.1 8.8 14.8l33.7 19.4c4.8 2.8 8.7.6 8.7-4.8 0-5.4-3.9-12.1-8.7-14.8z" class="st13"/><path id="path126" d="M1233.6 2162c-4.8-2.7-8.6-.6-8.5 4.8.1 5.4 4 12.1 8.8 14.8l33.7 19.4c4.8 2.8 8.7.6 8.7-4.8 0-5.4-3.9-12.1-8.7-14.8z" class="st13"/><path id="path128" d="M1199.4 2024.6c-4.7-2.7-8.4-.5-8.4 4.9.1 5.4 3.9 12 8.6 14.7 4.7 2.7 8.4.5 8.4-4.9-.1-5.3-3.9-12-8.6-14.7z" fill="#20bf55"/><path id="path130" d="M1199.4 2142.3c-4.7-2.7-8.4-.5-8.4 4.9s3.9 12 8.6 14.7c4.7 2.7 8.4.5 8.4-4.9-.1-5.4-3.9-12-8.6-14.7z" fill="#d91e36"/><path id="path132" d="M1062 2181.4c-3.8-2.2-6.9-.4-7 4v3.7c0 4.4 3.1 9.8 6.9 12l54.3 31.3c3.8 2.2 6.9 7.6 6.9 12v3.5c0 4.4 3.1 9.8 6.9 12l54 31.2c3.8 2.2 6.9.4 6.9-4v-3.6c0-4.4 3.1-6.2 6.9-4l54.2 31.3c3.8 2.2 6.9.4 7-4v-3.6c0-4.4-3.1-9.8-6.9-12z" class="st12"/><path id="polygon134" class="st12" d="M1309.7 1975.9l-306-176.8-.1-9.3 306.1 176.8z"/><path id="polygon136" class="st12" d="M1309.8 2270.3l-305.9-176.5v-9.2l306 176.4z"/></g></g></g><g transform="matrix(.23863 0 0 .24017 -231.255 -300.353)" id="Treasure_Chest"><g id="Treasure_Chest_Group"><path class="st0" id="Shadow" d="M3367.2 2550.3l356.5-206.6-375.4-216.6"/><linearGradient y2="2308.134" x2="3986.321" y1="2308.134" x1="3338.975" gradientUnits="userSpaceOnUse" id="SVGID_9_"><stop id="stop143" offset="0" stop-color="#1a1a1a"/><stop id="stop145" offset=".215" stop-color="#1d1d1d"/><stop id="stop147" offset=".397" stop-color="#262827"/><stop id="stop149" offset=".566" stop-color="#363937"/><stop id="stop151" offset=".729" stop-color="#4b524e"/><stop id="stop153" offset=".885" stop-color="#67716b"/><stop id="stop155" offset="1" stop-color="#808e86"/></linearGradient><path id="path158" d="M3349 2182.3c-.4 89.1 93.9 105.8 209.5 37.1 115.7-68.7 276.7-86.5 357.8-39.7 81.1 46.8 79.9 124.5-2.7 172.6-82.6 48.1-202.9 90.3-266.3 101.3-52.4 9.1-122.7 24.3-184.2-31.2-33.3-30.1-54.6-50.6-87.9-33.7-11.2 5.7-19.8 11.4-19.8 11.4" stroke="url(#SVGID_9_)" fill="none" stroke-width="20" stroke-miterlimit="10"/><path id="polygon160" fill="#603813" d="M2415 2176.8v275.3l543.8 314 .7-272.6z"/><path id="polygon162" class="st20" d="M2976.5 2503.6l390.7-228-1.9 256.1-406.5 234.8.7-272.5z"/><g id="g172"><path id="rect164" class="st10" transform="rotate(-29.565 3184.374 2441.814)" d="M2993.7 2437.8h381.2v8h-381.2z"/><path id="rect166" class="st21" transform="rotate(-60.015 2648.87 2390.905)" d="M2645 2101.3h8v579.5h-8z"/><path id="rect168" class="st10" transform="rotate(-29.969 3185.136 2557.392)" d="M3002.8 2553.3h364.9v8h-364.9z"/><path id="rect170" class="st21" transform="rotate(-59.881 2643.256 2506.106)" d="M2639.4 2209.6h8v593.2h-8z"/></g><path id="polygon174" class="st21" d="M3384.2 2147.9l-407.7 235.6v120.1l407.7-237.9z"/><linearGradient y2="2073.842" x2="3384.195" y1="2073.842" x1="2313.776" gradientUnits="userSpaceOnUse" id="SVGID_10_"><stop id="stop176" offset="0" stop-color="#fc0"/><stop id="stop178" offset="1" stop-color="#f58a07"/></linearGradient><path id="polygon181" fill="url(#SVGID_10_)" d="M2721.1 1764.2l-407.3 236.7 662.7 382.6 407.7-235.6z"/><linearGradient y2="1600.734" x2="3313.566" y1="1953.336" x1="3064.978" gradientUnits="userSpaceOnUse" id="SVGID_11_"><stop id="stop183" offset="0" stop-color="#fc0"/><stop id="stop185" offset="1" stop-color="#f69406"/></linearGradient><path id="polygon188" fill="url(#SVGID_11_)" d="M2984.7 1388.9l-263.6 375.3 663.1 383.7 280.5-366.8z"/><path id="path190" d="M3613.7 2062.8c-49.7 53.5-172.6 106.6-172.6 106.6l250.7-310.3c-.1 0-4.9 124.8-78.1 203.7z" class="st20"/><linearGradient y2="1645.289" x2="3280.244" y1="1919.178" x1="3092.425" gradientUnits="userSpaceOnUse" id="SVGID_12_"><stop id="stop192" offset="0" stop-color="#1a1a1a"/><stop id="stop194" offset="1" stop-color="#42210b"/></linearGradient><path id="polygon197" fill="url(#SVGID_12_)" d="M2772 1754.4l605.4 349.5 236.3-312.8-617.3-355.4z"/><linearGradient y2="2392.341" x2="2682.05" y1="2317.512" x1="2693.93" gradientUnits="userSpaceOnUse" id="SVGID_13_"><stop id="stop199" offset="0" stop-color="#d91e36"/><stop id="stop201" offset=".021" stop-color="#da2135"/><stop id="stop203" offset=".333" stop-color="#e64e21"/><stop id="stop205" offset=".611" stop-color="#ee6f13"/><stop id="stop207" offset=".843" stop-color="#f3830a"/><stop id="stop209" offset="1" stop-color="#f58a07"/></linearGradient><path id="path212" d="M2659.1 2412.9c18.1 3 45-12 45.1-38.5.1-26.5 0-34.6 0-34.6l-24.2-9.5" fill="url(#SVGID_13_)"/><path id="path214" d="M2936.1 1689.5c-79.6 73.6-164.1 64.8-164.1 64.8l224.4-318.7c0 .1 19.3 180.3-60.3 253.9z" fill="#1a1a1a" stroke="#1a1a1a" stroke-miterlimit="10"/><linearGradient y2="1876.402" x2="3045.839" y1="2271.233" x1="2651.008" gradientUnits="userSpaceOnUse" id="SVGID_14_"><stop id="stop216" offset="0" stop-color="#1a1a1a"/><stop id="stop218" offset="1" stop-color="#603813"/></linearGradient><path id="polygon221" fill="url(#SVGID_14_)" d="M2721.3 1803.5l-340.6 197.4 595.8 343.5 339.7-197.6z"/><linearGradient y2="2197.274" x2="2550.958" y1="1803.498" x1="2550.958" gradientUnits="userSpaceOnUse" id="SVGID_15_"><stop id="stop223" offset="0" stop-color="#42210b"/><stop id="stop225" offset="1" stop-color="#1a1a1a"/></linearGradient><path id="polygon228" fill="url(#SVGID_15_)" d="M2721.3 2197.3l-340.6-196.4 340.6-197.4z"/><path id="polygon230" class="st21" d="M3663.1 1782l51 49.3-278.9 346.1-51-29.5z"/><path id="line232" fill="#ffe066" d="M2313.8 2000.9l662.7 382.6"/><linearGradient y2="2708.581" x2="2883.821" y1="2472.629" x1="2993.847" gradientUnits="userSpaceOnUse" id="SVGID_16_"><stop id="stop234" offset="0" stop-color="#d91e36"/><stop id="stop236" offset=".25" stop-color="#fc0"/><stop id="stop238" offset=".512" stop-color="#ffc900"/><stop id="stop240" offset=".67" stop-color="#fdc101"/><stop id="stop242" offset=".8" stop-color="#fbb303"/><stop id="stop244" offset=".915" stop-color="#f89f05"/><stop id="stop246" offset="1" stop-color="#f58a07"/></linearGradient><path id="polygon249" fill="url(#SVGID_16_)" d="M2891.1 2454.1l-.2 292.6 68.2 39.2.4-291.9z"/><path id="polygon251" class="st21" d="M2959.1 2785.9l.4-291.9 17 9.6 50.6-29.5v272.5z"/><path id="polygon253" class="st21" d="M3299.2 2589.6l.4-274.5 67.6-39.5v274.7z"/><linearGradient y2="2427.982" x2="2301.976" y1="2142.41" x1="2435.14" gradientUnits="userSpaceOnUse" id="SVGID_17_"><stop id="stop255" offset="0" stop-color="#d91e36"/><stop id="stop257" offset=".211" stop-color="#fc0"/><stop id="stop259" offset=".487" stop-color="#ffc900"/><stop id="stop261" offset=".653" stop-color="#fdc101"/><stop id="stop263" offset=".79" stop-color="#fbb303"/><stop id="stop265" offset=".91" stop-color="#f89f05"/><stop id="stop267" offset="1" stop-color="#f58a07"/></linearGradient><path id="polygon270" fill="url(#SVGID_17_)" d="M2329.8 2128.2l.4 294.7 67.8 39.2-.3-294.3z"/><path id="polygon272" class="st32" d="M2398 2462.1l17-10v-274.8l-17.3-9.5z"/><path id="polygon274" class="st32" d="M3282.2 2579.8l17 9.8.4-274.5-17.4 9.6z"/><linearGradient y2="2252.247" x2="2976.492" y1="2252.247" x1="2312.914" gradientUnits="userSpaceOnUse" id="SVGID_18_"><stop id="stop276" offset="0" stop-color="#f58a07"/><stop id="stop278" offset=".5" stop-color="#fc0"/><stop id="stop280" offset="1" stop-color="#f58a07"/></linearGradient><path id="path283" d="M2602.3 2286.4s-.1 21.7-.1 48.2c0 26.6 19.1 59.4 42.5 72.9 23.4 13.5 42.5 2.9 42.5-23.6v-48.2l289.3 167.9v-120.1l-662.7-382.6-.9 117.5z" fill="url(#SVGID_18_)"/><path id="path285" d="M2649.2 2345.3c3.1-.5 5.1-3.3 5.1-7.7 0-7-4.9-15.5-11-19s-11-.7-11.1 6.3c0 4.5 2 9.6 5.1 13.6l-5.2 32 22 12.7z" class="st12"/></g></g><g transform="matrix(.23863 0 0 .24017 -231.255 -300.353)" id="Glow_Back"><g id="Glow_Back_Group"><linearGradient y2="1679.277" x2="2523.295" y1="1856.213" x1="2626.42" gradientUnits="userSpaceOnUse" id="SVGID_19_"><stop id="stop289" offset="0" stop-color="#f58a07" stop-opacity="0"/><stop id="stop291" offset=".025" stop-color="#f69006" stop-opacity=".154"/><stop id="stop293" offset=".058" stop-color="#f8a005" stop-opacity=".355"/><stop id="stop295" offset=".095" stop-color="#fcbb02" stop-opacity=".582"/><stop id="stop297" offset=".115" stop-color="#fc0" stop-opacity=".7"/><stop id="stop299" offset=".263" stop-color="#fcbb02" stop-opacity=".582"/><stop id="stop301" offset=".55" stop-color="#f8a005" stop-opacity=".355"/><stop id="stop303" offset=".805" stop-color="#f69006" stop-opacity=".154"/><stop id="stop305" offset="1" stop-color="#f58a07" stop-opacity="0"/></linearGradient><path id="polygon308" fill="url(#SVGID_19_)" d="M2301.2 1774.9l453.8-264.5-33.7 293.1-340.6 197.4z"/><linearGradient y2="1731.817" x2="3089.229" y1="1928.337" x1="2980.298" gradientUnits="userSpaceOnUse" id="SVGID_20_"><stop id="stop310" offset="0" stop-color="#f58a07" stop-opacity="0"/><stop id="stop312" offset=".012" stop-color="#f89b05" stop-opacity=".118"/><stop id="stop314" offset=".034" stop-color="#fcb602" stop-opacity=".344"/><stop id="stop316" offset=".055" stop-color="#fec601" stop-opacity=".546"/><stop id="stop318" offset=".07" stop-color="#fc0" stop-opacity=".7"/><stop id="stop320" offset=".226" stop-color="#fcbb02" stop-opacity=".582"/><stop id="stop322" offset=".528" stop-color="#f8a005" stop-opacity=".355"/><stop id="stop324" offset=".795" stop-color="#f69006" stop-opacity=".154"/><stop id="stop326" offset="1" stop-color="#f58a07" stop-opacity="0"/></linearGradient><path id="polygon329" fill="url(#SVGID_20_)" d="M2755 1510.4l-33.7 293.1 594.9 343.3 101.9-254z"/></g></g><g transform="matrix(.23863 0 0 .24017 -231.255 -300.353)" id="Wownero"><g id="Wownero_Group"><g id="g344"><g id="g342"><linearGradient gradientTransform="translate(-1152.317)" y2="2346.939" x2="4628.12" y1="1616.79" x1="4135.628" gradientUnits="userSpaceOnUse" id="SVGID_21_"><stop id="stop333" offset="0" stop-color="#f58a07"/><stop id="stop335" offset=".316" stop-color="#ff2ad4"/><stop id="stop337" offset=".743" stop-color="#48284a"/></linearGradient><path id="path340" d="M2937.2 1294.3c-43-24.8-84.8-39.2-124.1-42.8-38-3.5-72.2 3.3-101.5 20l-108.1 62.1 467.2 766.7 90-50.9c29.4-16.7 52.4-42.6 68.6-77 16.7-35.6 25.3-78.6 25.4-128.1.1-49.5-8.1-102.2-24.6-157-15.9-52.9-38.8-105.3-68-155.8-29.2-50.5-63.2-96.6-101.1-136.9-39-41.7-80.7-75.4-123.8-100.3" fill="url(#SVGID_21_)"/></g></g><g id="g350"><g id="g348"><path id="path346" d="M2841.7 1348.5c-43-24.8-84.8-39.2-124.1-42.8-38-3.5-72.2 3.3-101.5 20-29.4 16.7-52.4 42.6-68.6 77-16.7 35.6-25.3 78.6-25.4 128.1-.1 49.5 8.1 102.2 24.6 157 15.9 52.9 38.8 105.3 68 155.8 29.2 50.5 63.2 96.6 101.1 136.9 39.2 41.8 80.9 75.6 124 100.4 43 24.8 84.8 39.2 124.1 42.8 38 3.5 72.1-3.3 101.5-20 29.4-16.7 52.4-42.6 68.6-77 16.7-35.6 25.3-78.6 25.4-128.1.1-49.4-8.1-102.2-24.6-157-15.9-52.9-38.8-105.3-68-155.8-29.2-50.5-63.2-96.6-101.1-136.9-39.3-41.8-81-75.6-124-100.4" fill="#ff2ad4"/></g></g><g id="g358"><g id="g356"><path id="path352" d="M2999.9 2008.7s-1 17.9 13.1-238.3l81.4 52.9c5.5 28.1 8.6 53.2 8.6 80.1-.5 173.7-109 231.1-260.1 143.8-151.1-87.3-273.2-298.8-272.7-472.4.1-27.1-2.5-29.9 3.1-51.7l81.1 50.2c.5 11.6 10.9 253.6 10.9 253.6l148.4-101.4 155.8 299.8 30.4-16.6m128.7-215.7l-137.5-79.1-30.5 16.6c-14.3-27.3-139.5-66.5-147-81-4.5 3.2-114.6 87-114.6 87l-2.3-192.8-137.3-79.2-30.5 16.6c-7.7 16.2-3.8 60.1-3.8 77.9-.5 188.6 133 433.9 297.1 528.7 164.1 94.8 318.7 1.8 319.2-186.7.1-34.9-4.5-71.7-12.8-108" class="st13"/><path id="path354" d="M2844.7 1387.5c-129.5-74.7-240.2-43-281.4 66.3 18.9 11.2 142.7 82.8 144 83.5l.1 204.3 125.5-87.7 106.4 256.4 30.5-16.6-9.2-163.2 30.2-12.1s70.9 57.8 103.5 76.6l30.5-16.6c-40.2-156.8-150.4-316-280.1-390.9" class="st32"/></g></g><g id="g366"><g id="g364"><path id="path360" d="M2969.3 2025.3l14.1-256.2 95.5 54.8c5.5 28.1 8 56.5 8 83.4-.5 173.7-123.4 243.7-274.5 156.4-151.1-87.3-273.2-298.8-272.7-472.4.1-27.1 3.1-51.7 8.8-73.6l96.5 56.1c.5 11.6 12.4 270.6 12.4 270.6l156.2-107.7 155.7 288.6m128.8-215.7l-137.5-79.1-11.8 216.6c-14.3-27.3-128.1-238.2-135.7-252.7-4.5 3.2-136.6 95-136.6 95l-10.4-229.2-137.3-79.2c-8.6 26.8-13.2 57.8-13.3 92.7-.5 188.6 132.6 419.1 296.7 513.9 164.1 94.8 298.1 18.4 298.6-170.2.1-34.7-4.5-71.5-12.7-107.8" fill="#e2fcef"/><path id="path362" d="M2814.2 1404.1c-129.5-74.7-240.2-43-281.4 66.3 18.9 11.2 142.7 82.8 144 83.5l9.6 210.1 126.9-88.4 126 234.6s9.6-167.6 11.3-198.3c29.9 17.2 61.4 35.5 94.1 54.3 16.3 9.4 32.9 19 49.7 28.7-40.3-156.7-150.5-315.9-280.2-390.8" fill="#fc0"/></g></g></g></g><g transform="matrix(.23863 0 0 .24017 -231.255 -300.353)" id="Glow_Front"><g id="Glow_Front_Group"><linearGradient y2="2181.754" x2="3235.247" y1="2066.631" x1="3166.045" gradientUnits="userSpaceOnUse" id="SVGID_22_"><stop id="stop370" offset="0" stop-color="#f58a07" stop-opacity="0"/><stop id="stop372" offset=".198" stop-color="#f69006" stop-opacity=".154"/><stop id="stop374" offset=".46" stop-color="#f8a105" stop-opacity=".357"/><stop id="stop376" offset=".756" stop-color="#fdbc02" stop-opacity=".588"/><stop id="stop378" offset=".927" stop-color="#fc0" stop-opacity=".7"/><stop id="stop380" offset=".959" stop-color="#ffca00" stop-opacity=".358"/><stop id="stop382" offset=".98" stop-color="#fec301" stop-opacity="0"/></linearGradient><path id="polygon393" fill="url(#SVGID_22_)" d="M2976.5 2344.4v-193.1l441.6-258.5-101.9 254z"/><linearGradient y2="2017.595" x2="2663.616" y1="2117.568" x1="2604.742" gradientUnits="userSpaceOnUse" id="SVGID_23_"><stop id="stop395" offset="0" stop-color="#f58a07" stop-opacity="0"/><stop id="stop397" offset=".027" stop-color="#faab04" stop-opacity=".279"/><stop id="stop399" offset=".063" stop-color="#fec301" stop-opacity=".54"/><stop id="stop401" offset=".105" stop-color="#fc0" stop-opacity=".7"/><stop id="stop403" offset=".255" stop-color="#fcbb02" stop-opacity=".582"/><stop id="stop405" offset=".511" stop-color="#f8a005" stop-opacity=".355"/><stop id="stop407" offset=".788" stop-color="#f69006" stop-opacity=".154"/><stop id="stop409" offset="1" stop-color="#f58a07" stop-opacity="0"/></linearGradient><path id="polygon412" fill="url(#SVGID_23_)" d="M2976.5 2151.3l-675.3-376.4 79.5 226 595.8 343.5z"/></g></g></svg>