<?xml version="1.0" encoding="UTF-8" standalone="no"?>
<!-- Created with Inkscape (http://www.inkscape.org/) -->

<svg
   xmlns:dc="http://purl.org/dc/elements/1.1/"
   xmlns:cc="http://creativecommons.org/ns#"
   xmlns:rdf="http://www.w3.org/1999/02/22-rdf-syntax-ns#"
   xmlns:svg="http://www.w3.org/2000/svg"
   xmlns="http://www.w3.org/2000/svg"
   xmlns:sodipodi="http://sodipodi.sourceforge.net/DTD/sodipodi-0.dtd"
   xmlns:inkscape="http://www.inkscape.org/namespaces/inkscape"
   version="1.1"
   id="svg2"
   width="1600"
   height="1613.76"
   viewBox="0 0 1600 1613.76"
   sodipodi:docname="bw.svg"
   inkscape:version="0.92.2 (5c3e80d, 2017-08-06)">
  <metadata
     id="metadata8">
    <rdf:RDF>
      <cc:Work
         rdf:about="">
        <dc:format>image/svg+xml</dc:format>
        <dc:type
           rdf:resource="http://purl.org/dc/dcmitype/StillImage" />
        <dc:title></dc:title>
      </cc:Work>
    </rdf:RDF>
  </metadata>
  <defs
     id="defs6" />
  <sodipodi:namedview
     pagecolor="#ffffff"
     bordercolor="#666666"
     borderopacity="1"
     objecttolerance="10"
     gridtolerance="10"
     guidetolerance="10"
     inkscape:pageopacity="0"
     inkscape:pageshadow="2"
     inkscape:window-width="1304"
     inkscape:window-height="745"
     id="namedview4"
     showgrid="false"
     inkscape:zoom="0.22"
     inkscape:cx="1084.0501"
     inkscape:cy="761.99016"
     inkscape:window-x="-8"
     inkscape:window-y="-8"
     inkscape:window-maximized="1"
     inkscape:current-layer="svg2" />
  <path
     style="fill:#000000;stroke-width:0.31999999"
     d="m 776.77381,1544.4412 -7.959,-0.2419 -6.921,-0.3616 -6.921,-0.3616 -8.8,-0.6298 -8.8,-0.6297 -8.48,-0.8054 -8.48,-0.8055 -9.44,-1.1287 -9.44,-1.1287 -8.8,-1.2749 -8.8,-1.2748 -9.28,-1.5713 -9.28,-1.5713 -9.12,-1.7937 -9.12,-1.7937 -9.44,-2.08 -9.44,-2.08 -12.48,-3.1553 -12.48,-3.1553 -9.44,-2.7195 -9.44,-2.7195 -6.72,-2.0942 -6.72,-2.0941 -9.92,-3.3387 -9.92,-3.3387 -5.92,-2.1472 -5.92,-2.1472 -9.5109,-3.6538 -9.5108,-3.6537 -7.9655,-3.3307 -7.9656,-3.3308 -6.8436,-3.0256 -6.8436,-3.0256 -7.36,-3.4222 -7.36,-3.4221 -11.04,-5.5243 -11.04,-5.5243 -6.9795,-3.7455 -6.9794,-3.7455 -6.3006,-3.5457 -6.3005,-3.5458 -4.96,-2.8918 -4.96,-2.8917 -5.28,-3.1967 -5.28,-3.1967 -5.6,-3.5196 -5.6,-3.5196 -7.9338,-5.2268 -7.9339,-5.2268 -6.3061,-4.3763 -6.3062,-4.3764 -7.04,-5.1178 -7.04,-5.1177 -6.56,-4.9804 -6.56,-4.9803 -7.1605,-5.7348 -7.1604,-5.7348 -4.9996,-4.1732 -4.9995,-4.1732 -4.2664,-3.6694 -4.2663,-3.6693 -4.5228,-4.0326 -4.5228,-4.0325 -4.3309,-3.9658 -4.3308,-3.9658 -9.44,-9.0549 -9.44,-9.0549 -8.9939,-9.3793 -8.9939,-9.3793 -3.9661,-4.3309 -3.9661,-4.3308 -4.0325,-4.5228 -4.0326,-4.5228 -3.6694,-4.2663 -3.6693,-4.2664 -4.1732,-4.9996 -4.1732,-4.9995 -5.7348,-7.1605 -5.7348,-7.1604 -4.9803,-6.56 -4.9804,-6.56 -5.1178,-7.04 -5.1177,-7.04 -4.3764,-6.3062 -4.3763,-6.3062 -5.2268,-7.9338 -5.2268,-7.9338 -3.5196,-5.6 -3.5196,-5.6 -3.1967,-5.28 -3.1967,-5.28 -2.8917,-4.96 -2.8918,-4.96 -3.5458,-6.3005 -3.5457,-6.3006 -3.7455,-6.9794 -3.7455,-6.9795 -5.5243,-11.04 -5.5243,-11.04 -3.4222,-7.36 -3.4221,-7.36 -3.0256,-6.8436 -3.0256,-6.8437 -3.3308,-7.9655 -3.3307,-7.9655 -3.6537,-9.5108 -3.653803,-9.5109 -2.1472,-5.92 -2.1472,-5.92 -3.3387,-9.92 -3.338695,-9.92 -2.0942,-6.72 -2.0941,-6.72 -2.7195,-9.44 -2.7195,-9.44007 -3.1553,-12.48 -3.1554,-12.47996 -2.0799,-9.44 -2.08,-9.44 -1.7937,-9.12 -1.7938,-9.12 -1.5712,-9.28 -1.5713,-9.28 -1.2749,-8.8 -1.2748,-8.8 -1.1287,-9.44 -1.1288,-9.44 -0.8054,-8.48 -0.8054,-8.48 -0.6285,-8.8 -0.6285,-8.8 -0.34,-6.56 -0.34,-6.56 -0.3099,-10.08 -0.3099,-10.08 v -11.52 -11.52 l 0.3099,-10.08 0.3099,-10.08 0.34,-6.56 0.34,-6.56 0.6285,-8.8 0.6285,-8.80002 0.8054,-8.48 0.8054,-8.48 1.1288,-9.44 1.1287,-9.44 1.2748,-8.8 1.2749,-8.8 1.5942,-9.44 1.5942,-9.44 2.5534,-12.64 2.5533,-12.64 1.0471,-4.64 1.0471,-4.64 246.834338,-0.1608 0.007,1.04041 -0.0101,1.02384 c 10.4704,202.79559 26.00962,433.045 37.1513,622.2566 h 0.3106 -0.3106 c 152.48072,-168.4606 307.17786,-341.46105 436.8,-484.80003 148.87057,163.92236 299.94365,334.72313 433.55395,483.51973 0.2562,0.2666 7.3825,30.2883 0,0 13.887,-212.5006 30.9815,-431.75092 43.5705,-620.95972 l 0.081,-1.04038 0.058,-1.04039 259.8413,0.1608 1.0472,4.64 1.0471,4.64 2.5533,12.64 2.5533,12.64 1.5942,9.44 1.5942,9.44 1.2749,8.8 1.2748,8.8 1.1288,9.44 1.1287,9.44 0.8054,8.48 0.8054,8.48 0.6285,8.79996 0.6285,8.8 0.34,6.56 0.34,6.56 0.3099,10.08 0.3099,10.08 v 11.52 11.52 l -0.3099,10.08 -0.3099,10.08 -0.34,6.56 -0.34,6.56 -0.6285,8.8 -0.6285,8.8 -0.8054,8.48 -0.8054,8.48 -1.1287,9.44 -1.1288,9.44 -1.2748,8.8 -1.2749,8.8 -1.5713,9.28 -1.5712,9.28 -1.7938,9.12 -1.7937,9.12 -2.08,9.44 -2.0799,9.44 -3.1553,12.47996 -3.1554,12.48 -2.7195,9.44007 -2.7195,9.4401 -2.0941,6.72 -2.0941,6.72 -3.3387,9.92 -3.3387,9.92 -2.1473,5.92 -2.1472,5.92 -3.6537,9.5109 -3.6538,9.5108 -3.3307,7.9655 -3.3307,7.9655 -3.0256,6.8437 -3.0257,6.8436 -3.4221,7.36 -3.4222,7.36 -5.5243,11.04 -5.5243,11.04 -3.7455,6.9795 -3.7454,6.9794 -3.5458,6.3006 -3.5458,6.3005 -2.8917,4.96 -2.8918,4.96 -3.1967,5.28 -3.1967,5.28 -3.5196,5.6 -3.5196,5.6 -5.2268,7.9338 -5.2268,7.9338 -4.3763,6.3062 -4.3763,6.3062 -5.1178,7.04 -5.1178,7.04 -4.9803,6.56 -4.9804,6.56 -5.7348,7.1604 -5.7348,7.1605 -4.1732,4.9995 -4.1732,4.9996 -3.6693,4.2664 -3.6694,4.2663 -4.0326,4.5228 -4.0325,4.5228 -3.9661,4.3308 -3.9661,4.3309 -8.9939,9.3793 -8.9939,9.3793 -9.44,9.0549 -9.44,9.0549 -4.3308,3.9658 -4.3309,3.9658 -4.5228,4.0325 -4.5228,4.0326 -4.2663,3.6693 -4.2664,3.6694 -4.9995,4.1732 -4.9996,4.1732 -7.1604,5.7348 -7.1605,5.7348 -6.56,4.9803 -6.56,4.9804 -7.04,5.1177 -7.04,5.1178 -6.3061,4.3764 -6.3062,4.3763 -7.9338,5.2268 -7.9339,5.2268 -5.6,3.5196 -5.6,3.5196 -5.28,3.1967 -5.28,3.1967 -4.96,2.8917 -4.96,2.8918 -6.3005,3.5458 -6.3006,3.5457 -6.9794,3.7455 -6.9795,3.7455 -11.04,5.5243 -11.04,5.5243 -7.36,3.4221 -7.36,3.4222 -6.8436,3.0256 -6.8436,3.0256 -7.9655,3.3308 -7.9655,3.3307 -9.5109,3.6537 -9.5109,3.6538 -5.92,2.1472 -5.92,2.1472 -9.92,3.3387 -9.92,3.3387 -6.72,2.0941 -6.72,2.0942 -9.44,2.7195 -9.43999,2.7195 -12.47996,3.1553 -12.48,3.1553 -9.44,2.08 -9.44,2.08 -9.12,1.7937 -9.12,1.7937 -9.28,1.5713 -9.28,1.5713 -8.8,1.2748 -8.8,1.2749 -9.44,1.1287 -9.44,1.1287 -8.48,0.8055 -8.48,0.8054 -8.8,0.6285 -8.8,0.6285 -6.56,0.34 -6.56,0.3399 -10.08,0.3099 -10.08,0.3099 -13.28,-0.045 -13.28,-0.045 -7.959,-0.2419 z"
     id="path16"
     inkscape:connector-curvature="0"
     sodipodi:nodetypes="ccccccccccccccccccccccccccccccccccccccccccccccccccccccccccccccccccccccccccccccccccccccccccccccccccccccccccccccccccccccccccccccccccccccccccccccccccccccccccccccccccccccccccccccccccccccccccccccccccccccccccccccccccccccccccccccccccccccccccccccccccccccccccccccccccccccccccccccccccccccccccccccccccccccccccccccccccccccccccccccccccccccccc" />
  <path
     style="fill:#000000;stroke-width:0.31999999"
     d="m 459.67931,434.70397 h -157.3933 -157.3932 v -0.1615 -0.1616 l 2.2816,-4.0784 2.2816,-4.0785 3.0553,-5.28 3.0553,-5.28 3.671,-6.08 3.6711,-6.08 3.5209,-5.6 3.5209,-5.6 5.2268,-7.9338 5.2268,-7.9338 4.3763,-6.3062 4.3764,-6.3062 5.1177,-7.04 5.1178,-7.04 4.9804,-6.56 4.9803,-6.56 5.7348,-7.1604 5.7348,-7.1604 4.1732,-4.9996 4.1732,-4.9996 3.6693,-4.2663 3.6694,-4.2664 4.0326,-4.5228 4.0325,-4.5227 3.9658,-4.3309 3.9658,-4.3309 9.0549,-9.44 9.0549,-9.44 9.3793,-8.9938 9.3793,-8.9939 4.3308,-3.9661 4.3309,-3.9662 4.5228,-4.0325 4.5228,-4.0325 4.2663,-3.6694 4.2664,-3.6694 4.9995,-4.1732 4.9996,-4.1731 7.1604,-5.7349 7.1605,-5.7348 6.56,-4.9803 6.56,-4.9803 7.04,-5.1178 7.04,-5.1178 6.3062,-4.3763 6.3061,-4.3764 7.9339,-5.2268 7.9338,-5.2267 5.6,-3.51965 5.6,-3.5196 5.28,-3.1967 5.28,-3.1967 4.96,-2.89174 4.96,-2.89175 6.3005,-3.54578 6.3006,-3.54577 6.9794,-3.74546 6.9795,-3.74546 11.04,-5.52432 11.04,-5.52432 7.36,-3.42215 7.36,-3.42216 6.8436,-3.02562 6.8436,-3.02561 7.9656,-3.33073 7.9655,-3.33073 9.5108,-3.653726 9.5109,-3.65373 5.92,-2.14725 5.92,-2.14725 9.92,-3.33868 9.92,-3.33869 6.72,-2.09413 6.72,-2.09412 9.44,-2.719505 9.44,-2.71951 12.48,-3.15533 12.48,-3.15534 9.44,-2.07998 9.44,-2.07998 9.12,-1.79371 9.12,-1.79372 9.28,-1.57127 9.28,-1.57127 8.8,-1.27486 8.8,-1.27486 9.44,-1.12872 9.44,-1.12873 8.48,-0.80541 8.48,-0.80541 8.8,-0.62851 8.8,-0.62851 6.56,-0.33998 6.56,-0.33998 10.08,-0.30989 10.08,-0.3099 h 11.52 11.52 l 10.08,0.3099 10.08,0.30989 6.56,0.33998 6.56,0.33998 8.8,0.62851 8.8,0.62851 8.48,0.80541 8.48,0.80541 9.44,1.12873 9.44,1.12872 8.8,1.27486 8.8,1.27486 9.28,1.57127 9.28,1.57127 9.12,1.79372 9.12,1.79371 9.44,2.07998 9.44,2.07998 12.48,3.15534 12.47996,3.15533 9.44003,2.71951 9.44,2.719505 6.72,2.09412 6.72,2.09413 9.92,3.33869 9.92,3.33868 5.92,2.14725 5.92,2.14725 9.5109,3.65373 9.5108,3.653726 7.9655,3.33073 7.9655,3.33073 6.8437,3.02561 6.8436,3.02562 7.36,3.42216 7.36,3.42215 11.04,5.52432 11.04,5.52432 6.9795,3.74546 6.9794,3.74546 6.3006,3.54577 6.3005,3.54578 4.96,2.89175 4.96,2.89174 5.28,3.1967 5.28,3.1967 5.6,3.5196 5.6,3.51965 7.9338,5.2267 7.9338,5.2268 6.3062,4.3764 6.3062,4.3763 7.04,5.1178 7.04,5.1178 6.56,4.9803 6.56,4.9803 7.1604,5.7348 7.1605,5.7349 4.9995,4.1731 4.9996,4.1732 4.2664,3.6694 4.2663,3.6694 4.5228,4.0325 4.5228,4.0325 4.3308,3.9662 4.3309,3.9661 9.3793,8.9939 9.3793,8.9938 9.0549,9.44 9.0549,9.44 3.9658,4.3309 3.9658,4.3309 4.0325,4.5227 4.0326,4.5228 3.6693,4.2664 3.6694,4.2663 4.1732,4.9996 4.1732,4.9996 5.7348,7.1604 5.7348,7.1604 4.9803,6.56 4.9804,6.56 5.1177,7.04 5.1178,7.04 4.3764,6.3062 4.3763,6.3062 5.2268,7.9338 5.2268,7.9338 3.5209,5.6 3.5209,5.6 3.671,6.08 3.671,6.08 3.0553,5.28 3.0553,5.28 2.2817,4.0785 2.2816,4.0784 v 0.1616 0.1615 h -167.1532 -167.1533 c -10.6517,144.08109 -20.4346,291.43368 -29.5754,422.2286 v 0 C 988.51705,742.54094 880.57245,626.36734 791.72301,524.26177 688.56317,636.92753 580.13254,761.06419 489.59491,860.45707 476.81467,712.18494 468.55972,560.38038 459.67931,434.70397 Z"
     id="path16-4"
     inkscape:connector-curvature="0"
     sodipodi:nodetypes="cccccccccccccccccccccccccccccccccccccccccccccccccccccccccccccccccccccccccccccccccccccccccccccccccccccccccccccccccccccccccccccccccccccccccccccccccccccccccccccccccccccccccccccccccccccccccccccccccccccccccccccccc" />
</svg>
